<svg width="600" height="261" viewBox="0 0 600 261" fill="none" xmlns="http://www.w3.org/2000/svg">
<rect width="600" height="261" fill="white"/>
<path d="M195.426 104.582V97.9727H180.449V168.426H195.426V161.816H188.676V104.582H195.426ZM224.52 157H232.746L248.496 105.812H239.285L229.477 141.215L228.598 144.309L227.754 141.25L218.016 105.812H208.77L224.52 157ZM271.368 157.703C275.071 157.703 278.223 156.977 280.825 155.523C283.45 154.07 285.395 152.43 286.66 150.602L282.16 146.242C280.989 147.742 279.5 148.902 277.696 149.723C275.891 150.52 273.946 150.918 271.86 150.918C270.336 150.918 268.93 150.66 267.641 150.145C266.375 149.629 265.274 148.902 264.336 147.965C263.399 147.074 262.66 146.066 262.121 144.941C261.582 143.816 261.184 142.422 260.926 140.758V140.582H287.293V136.961C287.293 134.242 286.93 131.734 286.203 129.438C285.477 127.141 284.399 125.16 282.969 123.496C281.539 121.855 279.77 120.578 277.66 119.664C275.551 118.727 273.125 118.258 270.383 118.258C267.922 118.258 265.602 118.727 263.422 119.664C261.266 120.578 259.368 121.891 257.727 123.602C256.086 125.312 254.797 127.375 253.86 129.789C252.922 132.203 252.453 134.898 252.453 137.875V139.316C252.453 141.918 252.899 144.344 253.789 146.594C254.703 148.82 255.993 150.754 257.657 152.395C259.321 154.059 261.313 155.359 263.633 156.297C265.977 157.234 268.555 157.703 271.368 157.703ZM270.348 125.078C271.754 125.078 272.985 125.324 274.039 125.816C275.118 126.285 276.008 126.918 276.711 127.715C277.438 128.535 278 129.496 278.399 130.598C278.797 131.676 278.996 132.766 278.996 133.867V134.43H261.102C261.36 132.977 261.758 131.676 262.297 130.527C262.836 129.379 263.504 128.395 264.301 127.574C265.098 126.777 266 126.168 267.008 125.746C268.039 125.301 269.153 125.078 270.348 125.078ZM311.254 150.953C309.497 150.953 308.032 150.602 306.86 149.898C305.688 149.195 304.762 148.27 304.082 147.121C303.379 145.973 302.875 144.66 302.571 143.184C302.29 141.684 302.149 140.16 302.149 138.613V137.383C302.149 135.859 302.29 134.359 302.571 132.883C302.875 131.406 303.379 130.094 304.082 128.945C304.786 127.797 305.711 126.871 306.86 126.168C308.032 125.441 309.497 125.078 311.254 125.078C312.403 125.078 313.469 125.277 314.454 125.676C315.461 126.074 316.329 126.613 317.055 127.293C317.758 127.973 318.297 128.77 318.672 129.684C319.071 130.598 319.27 131.57 319.27 132.602H327.18C327.204 130.492 326.817 128.559 326.02 126.801C325.247 125.043 324.157 123.531 322.75 122.266C321.344 121 319.657 120.016 317.688 119.312C315.743 118.609 313.622 118.258 311.325 118.258C308.418 118.258 305.864 118.773 303.661 119.805C301.481 120.812 299.653 122.184 298.176 123.918C296.7 125.652 295.586 127.68 294.836 130C294.11 132.32 293.747 134.781 293.747 137.383V138.613C293.747 141.238 294.122 143.711 294.872 146.031C295.622 148.328 296.723 150.344 298.176 152.078C299.653 153.812 301.481 155.195 303.661 156.227C305.864 157.234 308.43 157.738 311.36 157.738C313.469 157.738 315.473 157.398 317.372 156.719C319.293 156.016 320.993 155.066 322.469 153.871C323.922 152.676 325.071 151.27 325.915 149.652C326.782 148.012 327.204 146.266 327.18 144.414H319.27C319.27 145.375 319.047 146.254 318.602 147.051C318.18 147.848 317.606 148.539 316.879 149.125C316.129 149.711 315.262 150.168 314.278 150.496C313.317 150.801 312.309 150.953 311.254 150.953ZM335.18 157H348.118C350.462 157 352.653 156.719 354.692 156.156C356.755 155.594 358.63 154.785 360.317 153.73C361.817 152.77 363.176 151.609 364.395 150.25C365.637 148.891 366.692 147.379 367.559 145.715C368.45 144.004 369.13 142.117 369.598 140.055C370.09 137.969 370.337 135.766 370.337 133.445V129.438C370.337 127.023 370.079 124.75 369.563 122.617C369.048 120.484 368.321 118.527 367.383 116.746C366.469 115.035 365.333 113.488 363.973 112.105C362.637 110.723 361.102 109.574 359.368 108.66C357.774 107.77 356.005 107.078 354.059 106.586C352.114 106.07 350.04 105.812 347.837 105.812H335.18V157ZM343.723 112.703H347.837C349.196 112.703 350.462 112.855 351.633 113.16C352.805 113.465 353.86 113.887 354.798 114.426C356.087 115.152 357.2 116.09 358.137 117.238C359.075 118.387 359.825 119.688 360.387 121.141C360.833 122.312 361.173 123.59 361.407 124.973C361.641 126.355 361.758 127.82 361.758 129.367V133.445C361.758 135.016 361.641 136.492 361.407 137.875C361.173 139.258 360.833 140.535 360.387 141.707C359.872 143.066 359.215 144.285 358.419 145.363C357.622 146.441 356.696 147.332 355.641 148.035C354.633 148.715 353.497 149.242 352.231 149.617C350.989 149.969 349.618 150.145 348.118 150.145H343.723V112.703ZM376.579 157H394.298C396.829 157 399.173 156.684 401.329 156.051C403.509 155.395 405.384 154.434 406.954 153.168C408.524 151.926 409.755 150.379 410.645 148.527C411.536 146.676 411.97 144.531 411.946 142.094C411.946 140.711 411.747 139.398 411.348 138.156C410.973 136.891 410.411 135.742 409.661 134.711C408.934 133.75 408.032 132.895 406.954 132.145C405.876 131.371 404.575 130.785 403.052 130.387V130.316C404.083 129.895 404.985 129.426 405.759 128.91C406.555 128.371 407.27 127.75 407.903 127.047C408.794 126.086 409.473 124.984 409.942 123.742C410.434 122.477 410.692 121.117 410.716 119.664C410.716 117.273 410.259 115.211 409.345 113.477C408.454 111.719 407.212 110.277 405.618 109.152C404.024 108.027 402.137 107.195 399.958 106.656C397.778 106.094 395.446 105.812 392.962 105.812H376.579V157ZM385.087 133.867H394.79C396.173 133.891 397.403 134.102 398.481 134.5C399.559 134.875 400.473 135.414 401.223 136.117C401.973 136.82 402.536 137.676 402.911 138.684C403.286 139.668 403.473 140.805 403.473 142.094C403.473 143.312 403.239 144.426 402.77 145.434C402.325 146.418 401.68 147.25 400.837 147.93C400.063 148.586 399.126 149.102 398.024 149.477C396.923 149.852 395.704 150.039 394.368 150.039H385.087V133.867ZM385.087 127.434V112.809H393.067C394.52 112.832 395.845 113.008 397.04 113.336C398.235 113.641 399.231 114.145 400.028 114.848C400.731 115.41 401.27 116.137 401.645 117.027C402.044 117.895 402.243 118.926 402.243 120.121C402.243 121.246 402.032 122.242 401.61 123.109C401.188 123.977 400.614 124.715 399.887 125.324C399.091 126.004 398.106 126.52 396.934 126.871C395.786 127.223 394.52 127.41 393.137 127.434H385.087ZM426.626 97.9727V104.582H433.411V161.816H426.626V168.426H441.638V97.9727H426.626Z" fill="#2B2B2B"/>
</svg>
